<svg xmlns="http://www.w3.org/2000/svg" xmlns:xlink="http://www.w3.org/1999/xlink" xmlns:lucid="lucid" width="1860" height="778.33"><g transform="translate(40 138.3333333333333)" lucid:page-tab-id="0_0"><path d="M10.45 85.8A7.8 7.8 0 0 1 18 80h116a4.6 4.6 0 0 1 4.45 5.8l-28.9 108.4A7.8 7.8 0 0 1 102 200H-14a4.6 4.6 0 0 1-4.45-5.8z" stroke="#4881b3" stroke-width="3" fill="#d7faf5"/><use xlink:href="#a" transform="matrix(1,0,0,1,-15,85) translate(40.912407407407414 45.27777777777778)"/><use xlink:href="#b" transform="matrix(1,0,0,1,-15,85) translate(50.57907407407407 71.94444444444446)"/><path d="M10.45 225.8A7.8 7.8 0 0 1 18 220h116a4.6 4.6 0 0 1 4.45 5.8l-28.9 108.4A7.8 7.8 0 0 1 102 340H-14a4.6 4.6 0 0 1-4.45-5.8z" stroke="#4881b3" stroke-width="3" fill="#d7faf5"/><use xlink:href="#c" transform="matrix(1,0,0,1,-15,225) translate(55.109938271604946 45.27777777777778)"/><use xlink:href="#d" transform="matrix(1,0,0,1,-15,225) translate(22.89388888888889 71.94444444444446)"/><path d="M10.45 365.8A7.8 7.8 0 0 1 18 360h116a4.6 4.6 0 0 1 4.45 5.8l-28.9 108.4A7.8 7.8 0 0 1 102 480H-14a4.6 4.6 0 0 1-4.45-5.8z" stroke="#4881b3" stroke-width="3" fill="#d7faf5"/><use xlink:href="#e" transform="matrix(1,0,0,1,-15,365) translate(52.75808641975309 59.02777777777778)"/><path d="M10.45 505.8A7.8 7.8 0 0 1 18 500h116a4.6 4.6 0 0 1 4.45 5.8l-28.9 108.4A7.8 7.8 0 0 1 102 620H-14a4.6 4.6 0 0 1-4.45-5.8z" stroke="#4881b3" stroke-width="3" fill="#d7faf5"/><use xlink:href="#f" transform="matrix(1,0,0,1,-15,505) translate(58.196358024691364 45.27777777777778)"/><use xlink:href="#g" transform="matrix(1,0,0,1,-15,505) translate(29.591419753086413 71.94444444444446)"/><path d="M200 106a6 6 0 0 1 6-6h128a6 6 0 0 1 6 6v68a6 6 0 0 1-6 6H206a6 6 0 0 1-6-6z" stroke="#4881b3" stroke-width="3" fill="#d7faf5"/><use xlink:href="#h" transform="matrix(1,0,0,1,212,112) translate(15.407407407407405 31.77777777777778)"/><path d="M200 514a6 6 0 0 1 6-6h128a6 6 0 0 1 6 6v92a6 6 0 0 1-6 6H206a6 6 0 0 1-6-6z" stroke="#4881b3" stroke-width="3" fill="#d7faf5"/><use xlink:href="#i" transform="matrix(1,0,0,1,212,520) translate(31.45679012345679 20.27777777777778)"/><use xlink:href="#j" transform="matrix(1,0,0,1,212,520) translate(27.876543209876544 46.94444444444444)"/><use xlink:href="#k" transform="matrix(1,0,0,1,212,520) translate(0.5432098765432158 70.05555555555556)"/><use xlink:href="#l" transform="matrix(1,0,0,1,212,520) translate(54.666666666666664 70.05555555555556)"/><use xlink:href="#m" transform="matrix(1,0,0,1,212,520) translate(75.35802469135803 70.05555555555556)"/><path d="M475.2 393.6a8 8 0 0 1 9.6 0l30.4 22.8a4.5 4.5 0 0 1 0 7.2l-30.4 22.8a8 8 0 0 1-9.6 0l-30.4-22.8a4.5 4.5 0 0 1 0-7.2z" stroke="#4881b3" stroke-width="3" fill="#d7faf5"/><use xlink:href="#n" transform="matrix(1,0,0,1,445,395) translate(25.15932098765432 30.27777777777778)"/><path d="M126.55 420H423" stroke="#224c72" stroke-width="2" fill="none"/><path d="M126.58 421h-1.3l.54-2h.76z" stroke="#224c72" stroke-width=".05" fill="#224c72"/><path d="M438.26 420L424 424.63v-9.26z" stroke="#224c72" stroke-width="2" fill="#224c72"/><path d="M126.55 140H180" stroke="#224c72" stroke-width="2" fill="none"/><path d="M126.58 141h-1.3l.54-2h.76z" stroke="#224c72" stroke-width=".05" fill="#224c72"/><path d="M195.26 140L181 144.63v-9.26z" stroke="#224c72" stroke-width="2" fill="#224c72"/><path d="M812.24 226a6 6 0 0 1 6-6h208a6 6 0 0 1 6 6v228a6 6 0 0 1-6 6h-208a6 6 0 0 1-6-6z" stroke="#4881b3" stroke-width="3" fill="#fff3d9"/><use xlink:href="#o" transform="matrix(1,0,0,1,824.2382394656278,232) translate(41.27160493827161 98.77777777777777)"/><use xlink:href="#p" transform="matrix(1,0,0,1,824.2382394656278,232) translate(11.148148148148152 125.44444444444446)"/><use xlink:href="#q" transform="matrix(1,0,0,1,824.2382394656278,232) translate(85.1604938271605 125.44444444444446)"/><use xlink:href="#r" transform="matrix(1,0,0,1,824.2382394656278,232) translate(111.02469135802468 125.44444444444446)"/><path d="M126.55 280H180" stroke="#224c72" stroke-width="2" fill="none"/><path d="M126.58 281h-1.3l.54-2h.76z" stroke="#224c72" stroke-width=".05" fill="#224c72"/><path d="M195.26 280L181 284.63v-9.26z" stroke="#224c72" stroke-width="2" fill="#224c72"/><path d="M519.5 420H714a6 6 0 0 0 6-6v-68a6 6 0 0 1 6-6h66.24" stroke="#224c72" stroke-width="2" fill="none"/><path d="M519.53 421h-1.12l.1-1-.1-1h1.13z" stroke="#224c72" stroke-width=".05" fill="#224c72"/><path d="M807.5 340l-14.26 4.63v-9.26z" stroke="#224c72" stroke-width="2" fill="#224c72"/><path d="M1130.45 285.8a7.8 7.8 0 0 1 7.55-5.8h120.76a4.6 4.6 0 0 1 4.46 5.8l-28.9 108.4a7.8 7.8 0 0 1-7.56 5.8H1106a4.6 4.6 0 0 1-4.45-5.8z" stroke="#4881b3" stroke-width="3" fill="#fff3d9"/><use xlink:href="#s" transform="matrix(1,0,0,1,1105,285) translate(41.56055555555555 45.27777777777778)"/><use xlink:href="#t" transform="matrix(1,0,0,1,1105,285) translate(12.338333333333333 71.94444444444446)"/><path d="M1364.76 126a6 6 0 0 1 6-6h135.76a6 6 0 0 1 6 6v68a6 6 0 0 1-6 6h-135.76a6 6 0 0 1-6-6z" stroke="#4881b3" stroke-width="3" fill="#edf5ff"/><use xlink:href="#u" transform="matrix(1,0,0,1,1376.7618605343719,132) translate(19.53086419753086 31.77777777777778)"/><path d="M1364.76 306a6 6 0 0 1 6-6h135.76a6 6 0 0 1 6 6v68a6 6 0 0 1-6 6h-135.76a6 6 0 0 1-6-6z" stroke="#4881b3" stroke-width="3" fill="#edf5ff"/><use xlink:href="#v" transform="matrix(1,0,0,1,1376.7618605343719,312) translate(-7.197530864197532 32.44444444444444)"/><path d="M1364.76 486a6 6 0 0 1 6-6h135.76a6 6 0 0 1 6 6v68a6 6 0 0 1-6 6h-135.76a6 6 0 0 1-6-6z" stroke="#4881b3" stroke-width="3" fill="#edf5ff"/><use xlink:href="#w" transform="matrix(1,0,0,1,1376.7618605343719,492) translate(13.913580246913575 31.77777777777778)"/><path d="M126.55 560H180" stroke="#224c72" stroke-width="2" fill="none"/><path d="M126.58 561h-1.3l.54-2h.76z" stroke="#224c72" stroke-width=".05" fill="#224c72"/><path d="M195.26 560L181 564.63v-9.26z" stroke="#224c72" stroke-width="2" fill="#224c72"/><path d="M430.45 85.8A7.8 7.8 0 0 1 438 80h116a4.6 4.6 0 0 1 4.45 5.8l-28.9 108.4A7.8 7.8 0 0 1 522 200H406a4.6 4.6 0 0 1-4.45-5.8z" stroke="#4881b3" stroke-width="3" fill="#d7faf5"/><use xlink:href="#a" transform="matrix(1,0,0,1,405,85) translate(46.912407407407414 24.65277777777778)"/><use xlink:href="#x" transform="matrix(1,0,0,1,405,85) translate(56.07907407407407 51.31944444444445)"/><use xlink:href="#y" transform="matrix(1,0,0,1,405,85) translate(36.48030864197531 74.43055555555557)"/><use xlink:href="#z" transform="matrix(1,0,0,1,405,85) translate(27.449444444444445 95.76388888888889)"/><path d="M430.45 505.8A7.8 7.8 0 0 1 438 500h116a4.6 4.6 0 0 1 4.45 5.8l-28.9 108.4A7.8 7.8 0 0 1 522 620H406a4.6 4.6 0 0 1-4.45-5.8z" stroke="#4881b3" stroke-width="3" fill="#d7faf5"/><use xlink:href="#A" transform="matrix(1,0,0,1,405,505) translate(29.887716049382718 59.02777777777778)"/><use xlink:href="#B" transform="matrix(1,0,0,1,405,505) translate(89.14697530864197 59.02777777777778)"/><path d="M342.5 560h53.45" stroke="#224c72" stroke-width="2" fill="none"/><path d="M342.53 561h-1.03v-2h1.03z" stroke="#224c72" stroke-width=".05" fill="#224c72"/><path d="M411.2 560l-14.25 4.63v-9.26z" stroke="#224c72" stroke-width="2" fill="#224c72"/><path d="M480 497.5V468" stroke="#224c72" stroke-width="2" fill="none"/><path d="M481 498.5h-2v-1.03h2z" stroke="#224c72" stroke-width=".05" fill="#224c72"/><path d="M480 452.74l4.63 14.26h-9.26z" stroke="#224c72" stroke-width="2" fill="#224c72"/><path d="M342.5 140h53.45" stroke="#224c72" stroke-width="2" fill="none"/><path d="M342.53 141h-1.03v-2h1.03z" stroke="#224c72" stroke-width=".05" fill="#224c72"/><path d="M411.2 140l-14.25 4.63v-9.26z" stroke="#224c72" stroke-width="2" fill="#224c72"/><path d="M1034.74 340h61.2" stroke="#224c72" stroke-width="2" fill="none"/><path d="M1034.76 341h-1.02v-2h1.02z" stroke="#224c72" stroke-width=".05" fill="#224c72"/><path d="M1111.2 340l-14.25 4.63v-9.26z" stroke="#224c72" stroke-width="2" fill="#224c72"/><path d="M1251.3 340h49.5a6 6 0 0 0 6-6V166a6 6 0 0 1 6-6h31.96" stroke="#224c72" stroke-width="2" fill="none"/><path d="M1251.34 341h-1.3l.54-2h.76z" stroke="#224c72" stroke-width=".05" fill="#224c72"/><path d="M1360.03 160l-14.27 4.63v-9.26z" stroke="#224c72" stroke-width="2" fill="#224c72"/><path d="M1251.3 340h93.46" stroke="#224c72" stroke-width="2" fill="none"/><path d="M1251.34 341h-1.3l.54-2h.76z" stroke="#224c72" stroke-width=".05" fill="#224c72"/><path d="M1360.03 340l-14.27 4.63v-9.26z" stroke="#224c72" stroke-width="2" fill="#224c72"/><path d="M1251.3 340h49.5a6 6 0 0 1 6 6v168a6 6 0 0 0 6 6h31.96" stroke="#224c72" stroke-width="2" fill="none"/><path d="M1251.34 341h-1.3l.54-2h.76z" stroke="#224c72" stroke-width=".05" fill="#224c72"/><path d="M1360.03 520l-14.27 4.63v-9.26z" stroke="#224c72" stroke-width="2" fill="#224c72"/><path d="M1629.94 105.8a7.8 7.8 0 0 1 7.54-5.8H1794a4.6 4.6 0 0 1 4.45 5.8l-28.9 108.4a7.8 7.8 0 0 1-7.55 5.8h-156.52a4.6 4.6 0 0 1-4.45-5.8z" stroke="#4881b3" stroke-width="3" fill="#edf5ff"/><use xlink:href="#C" transform="matrix(1,0,0,1,1604.48264115124,105) translate(44.28277777777778 45.27777777777778)"/><use xlink:href="#D" transform="matrix(1,0,0,1,1604.48264115124,105) translate(53.17783950617283 71.94444444444446)"/><path d="M1629.94 285.8a7.8 7.8 0 0 1 7.54-5.8H1794a4.6 4.6 0 0 1 4.45 5.8l-28.9 108.4a7.8 7.8 0 0 1-7.55 5.8h-156.52a4.6 4.6 0 0 1-4.45-5.8z" stroke="#4881b3" stroke-width="3" fill="#edf5ff"/><use xlink:href="#E" transform="matrix(1,0,0,1,1604.48264115124,285) translate(34.31364197530864 45.27777777777778)"/><use xlink:href="#F" transform="matrix(1,0,0,1,1604.48264115124,285) translate(53.17783950617283 71.94444444444446)"/><path d="M1629.94 465.8a7.8 7.8 0 0 1 7.54-5.8H1794a4.6 4.6 0 0 1 4.45 5.8l-28.9 108.4a7.8 7.8 0 0 1-7.55 5.8h-156.52a4.6 4.6 0 0 1-4.45-5.8z" stroke="#4881b3" stroke-width="3" fill="#edf5ff"/><use xlink:href="#G" transform="matrix(1,0,0,1,1604.48264115124,465) translate(23.233395061728398 45.27777777777778)"/><use xlink:href="#D" transform="matrix(1,0,0,1,1604.48264115124,465) translate(53.17783950617283 71.94444444444446)"/><path d="M1515.02 160h80.4" stroke="#224c72" stroke-width="2" fill="none"/><path d="M1515.05 161h-1.03v-2h1.03z" stroke="#224c72" stroke-width=".05" fill="#224c72"/><path d="M1610.7 160l-14.27 4.63v-9.26z" stroke="#224c72" stroke-width="2" fill="#224c72"/><path d="M1515.02 340h80.4" stroke="#224c72" stroke-width="2" fill="none"/><path d="M1515.05 341h-1.03v-2h1.03z" stroke="#224c72" stroke-width=".05" fill="#224c72"/><path d="M1610.7 340l-14.27 4.63v-9.26z" stroke="#224c72" stroke-width="2" fill="#224c72"/><path d="M1515.02 520h80.4" stroke="#224c72" stroke-width="2" fill="none"/><path d="M1515.05 521h-1.03v-2h1.03z" stroke="#224c72" stroke-width=".05" fill="#224c72"/><path d="M1610.7 520l-14.27 4.63v-9.26z" stroke="#224c72" stroke-width="2" fill="#224c72"/><path d="M546.55 140H714a6 6 0 0 1 6 6v188a6 6 0 0 0 6 6h66.24" stroke="#224c72" stroke-width="2" fill="none"/><path d="M546.58 141h-1.3l.54-2h.76z" stroke="#224c72" stroke-width=".05" fill="#224c72"/><path d="M807.5 340l-14.26 4.63v-9.26z" stroke="#224c72" stroke-width="2" fill="#224c72"/><path d="M60-88.2a6 6 0 0 1 6-6h448a6 6 0 0 1 6 6V68.2a6 6 0 0 1-6 6H66a6 6 0 0 1-6-6z" stroke="#000" stroke-opacity="0" stroke-width="3" fill="#fff" fill-opacity="0"/><use xlink:href="#H" transform="matrix(1,0,0,1,65,-89.19999999999995) translate(171.27222222222224 50.274999999999984)"/><use xlink:href="#I" transform="matrix(1,0,0,1,65,-89.19999999999995) translate(257.6166666666667 50.274999999999984)"/><use xlink:href="#J" transform="matrix(1,0,0,1,65,-89.19999999999995) translate(18.41759259259277 90.54166666666663)"/><use xlink:href="#K" transform="matrix(1,0,0,1,65,-89.19999999999995) translate(278.9194444444444 90.54166666666663)"/><use xlink:href="#L" transform="matrix(1,0,0,1,65,-89.19999999999995) translate(363.8675925925925 90.54166666666663)"/><use xlink:href="#M" transform="matrix(1,0,0,1,65,-89.19999999999995) translate(225 128.1416666666666)"/><path d="M880-77.4a6 6 0 0 1 6-6h328a6 6 0 0 1 6 6V57.4a6 6 0 0 1-6 6H886a6 6 0 0 1-6-6z" stroke="#000" stroke-opacity="0" stroke-width="3" fill="#fff" fill-opacity="0"/><g><use xlink:href="#N" transform="matrix(1,0,0,1,885,-78.39999999999996) translate(111.27222222222224 38.962499999999984)"/><use xlink:href="#O" transform="matrix(1,0,0,1,885,-78.39999999999996) translate(197.61666666666665 38.962499999999984)"/><use xlink:href="#P" transform="matrix(1,0,0,1,885,-78.39999999999996) translate(9.508333333333468 79.22916666666663)"/><use xlink:href="#Q" transform="matrix(1,0,0,1,885,-78.39999999999996) translate(78.87685185185194 79.22916666666663)"/><use xlink:href="#R" transform="matrix(1,0,0,1,885,-78.39999999999996) translate(143.1101851851852 79.22916666666663)"/><use xlink:href="#S" transform="matrix(1,0,0,1,885,-78.39999999999996) translate(165 116.82916666666661)"/></g><path d="M1340-112.33a6 6 0 0 1 6-6h428a6 6 0 0 1 6 6V92.33a6 6 0 0 1-6 6h-428a6 6 0 0 1-6-6z" stroke="#000" stroke-opacity="0" stroke-width="3" fill="#fff" fill-opacity="0"/><g><use xlink:href="#T" transform="matrix(1,0,0,1,1345,-113.33333333333329) translate(161.27222222222224 75.68124999999998)"/><use xlink:href="#U" transform="matrix(1,0,0,1,1345,-113.33333333333329) translate(247.61666666666665 75.68124999999998)"/><use xlink:href="#V" transform="matrix(1,0,0,1,1345,-113.33333333333329) translate(100.24166666666676 115.94791666666663)"/><use xlink:href="#W" transform="matrix(1,0,0,1,1345,-113.33333333333329) translate(155.85833333333338 115.94791666666663)"/><use xlink:href="#X" transform="matrix(1,0,0,1,1345,-113.33333333333329) translate(215 153.5479166666666)"/></g><path d="M200 246a6 6 0 0 1 6-6h128a6 6 0 0 1 6 6v68a6 6 0 0 1-6 6H206a6 6 0 0 1-6-6z" stroke="#4881b3" stroke-width="3" fill="#d7faf5"/><g><use xlink:href="#Y" transform="matrix(1,0,0,1,212,252) translate(31.45679012345679 31.77777777777778)"/></g><path d="M410.45 225.8A7.8 7.8 0 0 1 418 220h116a4.6 4.6 0 0 1 4.45 5.8l-28.9 108.4A7.8 7.8 0 0 1 502 340H386a4.6 4.6 0 0 1-4.45-5.8z" stroke="#4881b3" stroke-width="3" fill="#d7faf5"/><g><use xlink:href="#c" transform="matrix(1,0,0,1,385,225) translate(58.109938271604946 34.96527777777778)"/><use xlink:href="#Z" transform="matrix(1,0,0,1,385,225) translate(25.89388888888889 61.63194444444445)"/><use xlink:href="#aa" transform="matrix(1,0,0,1,385,225) translate(37.684012345679015 84.74305555555557)"/></g><path d="M342.5 280h33.45" stroke="#224c72" stroke-width="2" fill="none"/><path d="M342.53 281h-1.03v-2h1.03z" stroke="#224c72" stroke-width=".05" fill="#224c72"/><path d="M391.2 280l-14.25 4.63v-9.26z" stroke="#224c72" stroke-width="2" fill="#224c72"/><path d="M526.55 280h135.6a6 6 0 0 1 6 6v48a6 6 0 0 0 6 6h118.1" stroke="#224c72" stroke-width="2" fill="none"/><path d="M526.58 281h-1.3l.54-2h.76z" stroke="#224c72" stroke-width=".05" fill="#224c72"/><path d="M807.5 340l-14.26 4.63v-9.26z" stroke="#224c72" stroke-width="2" fill="#224c72"/><path d="M810.74 340" stroke="#224c72" stroke-width="2" fill="none"/><path stroke="#224c72" stroke-width=".05" fill="#224c72"/><path d="M807.5 340l-14.26 4.63v-9.26z" stroke="#224c72" stroke-width="2" fill="#224c72"/><defs><path fill="#1d262b" d="M24-248c93 1 206-16 204 79-1 75-69 88-152 82V0H24v-248zm52 121c47 0 100 7 100-41 0-47-54-39-100-39v80" id="ab"/><path fill="#1d262b" d="M133-34C117-15 103 5 69 4 32 3 11-16 11-54c-1-60 55-63 116-61 1-26-3-47-28-47-18 1-26 9-28 27l-52-2c7-38 36-58 82-57s74 22 75 68l1 82c-1 14 12 18 25 15v27c-30 8-71 5-69-32zm-48 3c29 0 43-24 42-57-32 0-66-3-65 30 0 17 8 27 23 27" id="ac"/><path fill="#1d262b" d="M190-63c-7 42-38 67-86 67-59 0-84-38-90-98-12-110 154-137 174-36l-49 2c-2-19-15-32-35-32-30 0-35 28-38 64-6 74 65 87 74 30" id="ad"/><path fill="#1d262b" d="M182-130c37 4 62 22 62 59C244 23 116-4 24 0v-248c84 5 203-23 205 63 0 31-19 50-47 55zM76-148c40-3 101 13 101-30 0-44-60-28-101-31v61zm0 110c48-3 116 14 116-37 0-48-69-32-116-35v72" id="ae"/><path fill="#1d262b" d="M25-224v-37h50v37H25zM25 0v-190h50V0H25" id="af"/><path fill="#1d262b" d="M110-194c64 0 96 36 96 99 0 64-35 99-97 99-61 0-95-36-95-99 0-62 34-99 96-99zm-1 164c35 0 45-28 45-65 0-40-10-65-43-65-34 0-45 26-45 65 0 36 10 65 43 65" id="ag"/><g id="a"><use transform="matrix(0.06172839506172839,0,0,0.06172839506172839,0,0)" xlink:href="#ab"/><use transform="matrix(0.06172839506172839,0,0,0.06172839506172839,14.814814814814813,0)" xlink:href="#ac"/><use transform="matrix(0.06172839506172839,0,0,0.06172839506172839,27.160493827160494,0)" xlink:href="#ad"/><use transform="matrix(0.06172839506172839,0,0,0.06172839506172839,39.50617283950617,0)" xlink:href="#ae"/><use transform="matrix(0.06172839506172839,0,0,0.06172839506172839,55.49382716049382,0)" xlink:href="#af"/><use transform="matrix(0.06172839506172839,0,0,0.06172839506172839,61.666666666666664,0)" xlink:href="#ag"/></g><path fill="#1d262b" d="M186 0v-106H76V0H24v-248h52v99h110v-99h50V0h-50" id="ah"/><path fill="#1d262b" d="M76-208v77h127v40H76V0H24v-248h183v40H76" id="ai"/><g id="b"><use transform="matrix(0.06172839506172839,0,0,0.06172839506172839,0,0)" xlink:href="#ah"/><use transform="matrix(0.06172839506172839,0,0,0.06172839506172839,15.987654320987653,0)" xlink:href="#af"/><use transform="matrix(0.06172839506172839,0,0,0.06172839506172839,22.160493827160494,0)" xlink:href="#ai"/><use transform="matrix(0.06172839506172839,0,0,0.06172839506172839,35.67901234567901,0)" xlink:href="#af"/></g><path fill="#1d262b" d="M140-251c80 0 125 45 125 126S219 4 139 4C58 4 15-44 15-125s44-126 125-126zm-1 214c52 0 73-35 73-88 0-50-21-86-72-86-52 0-73 35-73 86s22 88 72 88" id="aj"/><path fill="#1d262b" d="M175 0L67-191c6 58 2 128 3 191H24v-248h59L193-55c-6-58-2-129-3-193h46V0h-61" id="ak"/><path fill="#1d262b" d="M136-208V0H84v-208H4v-40h212v40h-80" id="al"/><g id="c"><use transform="matrix(0.06172839506172839,0,0,0.06172839506172839,0,0)" xlink:href="#aj"/><use transform="matrix(0.06172839506172839,0,0,0.06172839506172839,17.28395061728395,0)" xlink:href="#ak"/><use transform="matrix(0.06172839506172839,0,0,0.06172839506172839,33.2716049382716,0)" xlink:href="#al"/></g><path fill="#1d262b" d="M238-95c0 69-44 99-111 99C63 4 22-25 22-93v-155h51v151c-1 38 19 59 55 60 90 1 49-130 58-211h52v153" id="am"/><path fill="#1d262b" d="M25 0v-261h50V0H25" id="an"/><path fill="#1d262b" d="M115-3C79 11 28 4 28-45v-112H4v-33h27l15-45h31v45h36v33H77v99c-1 23 16 31 38 25v30" id="ao"/><path fill="#1d262b" d="M135-150c-39-12-60 13-60 57V0H25l-1-190h47c2 13-1 29 3 40 6-28 27-53 61-41v41" id="ap"/><path fill="#1d262b" d="M135-194c87-1 58 113 63 194h-50c-7-57 23-157-34-157-59 0-34 97-39 157H25l-1-190h47c2 12-1 28 3 38 12-26 28-41 61-42" id="aq"/><path fill="#1d262b" d="M195-6C206 82 75 100 31 46c-4-6-6-13-8-21l49-6c3 16 16 24 34 25 40 0 42-37 40-79-11 22-30 35-61 35-53 0-70-43-70-97 0-56 18-96 73-97 30 0 46 14 59 34l2-30h47zm-90-29c32 0 41-27 41-63 0-35-9-62-40-62-32 0-39 29-40 63 0 36 9 62 39 62" id="ar"/><g id="d"><use transform="matrix(0.06172839506172839,0,0,0.06172839506172839,0,0)" xlink:href="#am"/><use transform="matrix(0.06172839506172839,0,0,0.06172839506172839,15.987654320987653,0)" xlink:href="#an"/><use transform="matrix(0.06172839506172839,0,0,0.06172839506172839,22.160493827160494,0)" xlink:href="#ao"/><use transform="matrix(0.06172839506172839,0,0,0.06172839506172839,29.50617283950617,0)" xlink:href="#ap"/><use transform="matrix(0.06172839506172839,0,0,0.06172839506172839,38.148148148148145,0)" xlink:href="#ac"/><use transform="matrix(0.06172839506172839,0,0,0.06172839506172839,50.49382716049382,0)" xlink:href="#an"/><use transform="matrix(0.06172839506172839,0,0,0.06172839506172839,56.666666666666664,0)" xlink:href="#ag"/><use transform="matrix(0.06172839506172839,0,0,0.06172839506172839,70.18518518518518,0)" xlink:href="#aq"/><use transform="matrix(0.06172839506172839,0,0,0.06172839506172839,83.7037037037037,0)" xlink:href="#ar"/></g><path fill="#1d262b" d="M14-72v-43h91v43H14" id="as"/><path fill="#1d262b" d="M67-125c0 53 21 87 73 88 37 1 54-22 65-47l45 17C233-25 199 4 140 4 58 4 20-42 15-125 8-235 124-281 211-232c18 10 29 29 36 50l-46 12c-8-25-30-41-62-41-52 0-71 34-72 86" id="at"/><g id="e"><use transform="matrix(0.06172839506172839,0,0,0.06172839506172839,0,0)" xlink:href="#ah"/><use transform="matrix(0.06172839506172839,0,0,0.06172839506172839,15.987654320987653,0)" xlink:href="#af"/><use transform="matrix(0.06172839506172839,0,0,0.06172839506172839,22.160493827160494,0)" xlink:href="#as"/><use transform="matrix(0.06172839506172839,0,0,0.06172839506172839,29.50617283950617,0)" xlink:href="#at"/></g><g id="f"><use transform="matrix(0.06172839506172839,0,0,0.06172839506172839,0,0)" xlink:href="#al"/><use transform="matrix(0.06172839506172839,0,0,0.06172839506172839,12.28395061728395,0)" xlink:href="#ap"/><use transform="matrix(0.06172839506172839,0,0,0.06172839506172839,20.925925925925924,0)" xlink:href="#af"/><use transform="matrix(0.06172839506172839,0,0,0.06172839506172839,27.098765432098762,0)" xlink:href="#ag"/></g><path fill="#1d262b" d="M24 0v-248h52V0H24" id="au"/><path fill="#1d262b" d="M85 4C-2 5 27-109 22-190h50c7 57-23 150 33 157 60-5 35-97 40-157h50l1 190h-47c-2-12 1-28-3-38-12 25-28 42-61 42" id="av"/><path fill="#1d262b" d="M220-157c-53 9-28 100-34 157h-49v-107c1-27-5-49-29-50C55-147 81-57 75 0H25l-1-190h47c2 12-1 28 3 38 10-53 101-56 108 0 13-22 24-43 59-42 82 1 51 116 57 194h-49v-107c-1-25-5-48-29-50" id="aw"/><g id="g"><use transform="matrix(0.06172839506172839,0,0,0.06172839506172839,0,0)" xlink:href="#au"/><use transform="matrix(0.06172839506172839,0,0,0.06172839506172839,6.172839506172839,0)" xlink:href="#an"/><use transform="matrix(0.06172839506172839,0,0,0.06172839506172839,12.345679012345679,0)" xlink:href="#an"/><use transform="matrix(0.06172839506172839,0,0,0.06172839506172839,18.51851851851852,0)" xlink:href="#av"/><use transform="matrix(0.06172839506172839,0,0,0.06172839506172839,32.03703703703704,0)" xlink:href="#aw"/><use transform="matrix(0.06172839506172839,0,0,0.06172839506172839,51.79012345679013,0)" xlink:href="#af"/><use transform="matrix(0.06172839506172839,0,0,0.06172839506172839,57.96296296296297,0)" xlink:href="#aq"/><use transform="matrix(0.06172839506172839,0,0,0.06172839506172839,71.48148148148148,0)" xlink:href="#ac"/></g><path fill="#1d262b" d="M96-169c-40 0-48 33-48 73s9 75 48 75c24 0 41-14 43-38l32 2c-6 37-31 61-74 61-59 0-76-41-82-99-10-93 101-131 147-64 4 7 5 14 7 22l-32 3c-4-21-16-35-41-35" id="ax"/><path fill="#1d262b" d="M84 4C-5 8 30-112 23-190h32v120c0 31 7 50 39 49 72-2 45-101 50-169h31l1 190h-30c-1-10 1-25-2-33-11 22-28 36-60 37" id="ay"/><path fill="#1d262b" d="M59-47c-2 24 18 29 38 22v24C64 9 27 4 27-40v-127H5v-23h24l9-43h21v43h35v23H59v120" id="az"/><path fill="#1d262b" d="M141-36C126-15 110 5 73 4 37 3 15-17 15-53c-1-64 63-63 125-63 3-35-9-54-41-54-24 1-41 7-42 31l-33-3c5-37 33-52 76-52 45 0 72 20 72 64v82c-1 20 7 32 28 27v20c-31 9-61-2-59-35zM48-53c0 20 12 33 32 33 41-3 63-29 60-74-43 2-92-5-92 41" id="aA"/><path fill="#1d262b" d="M85-194c31 0 48 13 60 33l-1-100h32l1 261h-30c-2-10 0-23-3-31C134-8 116 4 85 4 32 4 16-35 15-94c0-66 23-100 70-100zm9 24c-40 0-46 34-46 75 0 40 6 74 45 74 42 0 51-32 51-76 0-42-9-74-50-73" id="aB"/><path fill="#1d262b" d="M115-194c55 1 70 41 70 98S169 2 115 4C84 4 66-9 55-30l1 105H24l-1-265h31l2 30c10-21 28-34 59-34zm-8 174c40 0 45-34 45-75s-6-73-45-74c-42 0-51 32-51 76 0 43 10 73 51 73" id="aC"/><g id="h"><use transform="matrix(0.06172839506172839,0,0,0.06172839506172839,0,0)" xlink:href="#ax"/><use transform="matrix(0.06172839506172839,0,0,0.06172839506172839,11.11111111111111,0)" xlink:href="#ay"/><use transform="matrix(0.06172839506172839,0,0,0.06172839506172839,23.45679012345679,0)" xlink:href="#az"/><use transform="matrix(0.06172839506172839,0,0,0.06172839506172839,29.62962962962963,0)" xlink:href="#aA"/><use transform="matrix(0.06172839506172839,0,0,0.06172839506172839,41.97530864197531,0)" xlink:href="#aB"/><use transform="matrix(0.06172839506172839,0,0,0.06172839506172839,54.32098765432099,0)" xlink:href="#aA"/><use transform="matrix(0.06172839506172839,0,0,0.06172839506172839,66.66666666666667,0)" xlink:href="#aC"/><use transform="matrix(0.06172839506172839,0,0,0.06172839506172839,79.01234567901236,0)" xlink:href="#az"/></g><path fill="#1d262b" d="M147 0L96-86 75-71V0H25v-261h50v150l67-79h53l-66 74L201 0h-54" id="aD"/><path fill="#1d262b" d="M185-48c-13 30-37 53-82 52C43 2 14-33 14-96s30-98 90-98c62 0 83 45 84 108H66c0 31 8 55 39 56 18 0 30-7 34-22zm-45-69c5-46-57-63-70-21-2 6-4 13-4 21h74" id="aE"/><g id="i"><use transform="matrix(0.06172839506172839,0,0,0.06172839506172839,0,0)" xlink:href="#aD"/><use transform="matrix(0.06172839506172839,0,0,0.06172839506172839,12.345679012345679,0)" xlink:href="#aw"/><use transform="matrix(0.06172839506172839,0,0,0.06172839506172839,32.098765432098766,0)" xlink:href="#aE"/><use transform="matrix(0.06172839506172839,0,0,0.06172839506172839,44.44444444444444,0)" xlink:href="#ap"/></g><g id="j"><use transform="matrix(0.06172839506172839,0,0,0.06172839506172839,0,0)" xlink:href="#ad"/><use transform="matrix(0.06172839506172839,0,0,0.06172839506172839,12.345679012345679,0)" xlink:href="#ag"/><use transform="matrix(0.06172839506172839,0,0,0.06172839506172839,25.864197530864196,0)" xlink:href="#av"/><use transform="matrix(0.06172839506172839,0,0,0.06172839506172839,39.382716049382715,0)" xlink:href="#aq"/><use transform="matrix(0.06172839506172839,0,0,0.06172839506172839,52.901234567901234,0)" xlink:href="#ao"/></g><path fill="#1d262b" d="M87 75C49 33 22-17 22-94c0-76 28-126 65-167h31c-38 41-64 92-64 168S80 34 118 75H87" id="aF"/><path fill="#1d262b" d="M240 0l2-218c-23 76-54 145-80 218h-23L58-218 59 0H30v-248h44l77 211c21-75 51-140 76-211h43V0h-30" id="aG"/><path fill="#1d262b" d="M100-194c63 0 86 42 84 106H49c0 40 14 67 53 68 26 1 43-12 49-29l28 8c-11 28-37 45-77 45C44 4 14-33 15-96c1-61 26-98 85-98zm52 81c6-60-76-77-97-28-3 7-6 17-6 28h103" id="aH"/><path fill="#1d262b" d="M114-163C36-179 61-72 57 0H25l-1-190h30c1 12-1 29 2 39 6-27 23-49 58-41v29" id="aI"/><path fill="#1d262b" d="M179-190L93 31C79 59 56 82 12 73V49c39 6 53-20 64-50L1-190h34L92-34l54-156h33" id="aJ"/><path fill="#1d262b" d="M24 0v-261h32V0H24" id="aK"/><g id="k"><use transform="matrix(0.049382716049382706,0,0,0.049382716049382706,0,0)" xlink:href="#aF"/><use transform="matrix(0.049382716049382706,0,0,0.049382716049382706,5.876543209876542,0)" xlink:href="#aG"/><use transform="matrix(0.049382716049382706,0,0,0.049382716049382706,20.64197530864197,0)" xlink:href="#aH"/><use transform="matrix(0.049382716049382706,0,0,0.049382716049382706,30.518518518518512,0)" xlink:href="#aI"/><use transform="matrix(0.049382716049382706,0,0,0.049382716049382706,36.395061728395056,0)" xlink:href="#aJ"/><use transform="matrix(0.049382716049382706,0,0,0.049382716049382706,45.28395061728394,0)" xlink:href="#aK"/></g><path fill="#1d262b" d="M100-194c62-1 85 37 85 99 1 63-27 99-86 99S16-35 15-95c0-66 28-99 85-99zM99-20c44 1 53-31 53-75 0-43-8-75-51-75s-53 32-53 75 10 74 51 75" id="aL"/><g id="l"><use transform="matrix(0.049382716049382706,0,0,0.049382716049382706,0,0)" xlink:href="#aL"/><use transform="matrix(0.049382716049382706,0,0,0.049382716049382706,9.87654320987654,0)" xlink:href="#aI"/></g><path fill="#1d262b" d="M137-103V0h-34v-103L8-248h37l75 118 75-118h37" id="aM"/><path fill="#1d262b" d="M205 0l-28-72H64L36 0H1l101-248h38L239 0h-34zm-38-99l-47-123c-12 45-31 82-46 123h93" id="aN"/><path fill="#1d262b" d="M194 0L95-120 63-95V0H30v-248h33v124l119-124h40L117-140 236 0h-42" id="aO"/><path fill="#1d262b" d="M33-261c38 41 65 92 65 168S71 34 33 75H2C39 34 66-17 66-93S39-220 2-261h31" id="aP"/><g id="m"><use transform="matrix(0.049382716049382706,0,0,0.049382716049382706,0,0)" xlink:href="#aM"/><use transform="matrix(0.049382716049382706,0,0,0.049382716049382706,10.518518518518515,0)" xlink:href="#aN"/><use transform="matrix(0.049382716049382706,0,0,0.049382716049382706,22.370370370370367,0)" xlink:href="#aO"/><use transform="matrix(0.049382716049382706,0,0,0.049382716049382706,34.222222222222214,0)" xlink:href="#aP"/></g><g id="n"><use transform="matrix(0.06172839506172839,0,0,0.06172839506172839,0,0)" xlink:href="#aL"/><use transform="matrix(0.06172839506172839,0,0,0.06172839506172839,12.345679012345679,0)" xlink:href="#aI"/></g><path fill="#1d262b" d="M199 0l-22-63H83L61 0H9l90-248h61L250 0h-51zm-33-102l-36-108c-10 38-24 72-36 108h72" id="aQ"/><path fill="#1d262b" d="M137-138c1-29-70-34-71-4 15 46 118 7 119 86 1 83-164 76-172 9l43-7c4 19 20 25 44 25 33 8 57-30 24-41C81-84 22-81 20-136c-2-80 154-74 161-7" id="aR"/><path fill="#1d262b" d="M135-194c52 0 70 43 70 98 0 56-19 99-73 100-30 1-46-15-58-35L72 0H24l1-261h50v104c11-23 29-37 60-37zM114-30c31 0 40-27 40-66 0-37-7-63-39-63s-41 28-41 65c0 36 8 64 40 64" id="aS"/><g id="o"><use transform="matrix(0.06172839506172839,0,0,0.06172839506172839,0,0)" xlink:href="#aQ"/><use transform="matrix(0.06172839506172839,0,0,0.06172839506172839,15.987654320987653,0)" xlink:href="#aR"/><use transform="matrix(0.06172839506172839,0,0,0.06172839506172839,28.333333333333332,0)" xlink:href="#aR"/><use transform="matrix(0.06172839506172839,0,0,0.06172839506172839,40.67901234567901,0)" xlink:href="#aE"/><use transform="matrix(0.06172839506172839,0,0,0.06172839506172839,53.02469135802469,0)" xlink:href="#aw"/><use transform="matrix(0.06172839506172839,0,0,0.06172839506172839,72.77777777777777,0)" xlink:href="#aS"/><use transform="matrix(0.06172839506172839,0,0,0.06172839506172839,86.29629629629629,0)" xlink:href="#an"/><use transform="matrix(0.06172839506172839,0,0,0.06172839506172839,92.46913580246913,0)" xlink:href="#aE"/><use transform="matrix(0.06172839506172839,0,0,0.06172839506172839,104.81481481481481,0)" xlink:href="#ap"/></g><path fill="#1d262b" d="M137 0h-34L2-248h35l83 218 83-218h36" id="aT"/><path fill="#1d262b" d="M143 0L79-87 56-68V0H24v-261h32v163l83-92h37l-77 82L181 0h-38" id="aU"/><g id="p"><use transform="matrix(0.06172839506172839,0,0,0.06172839506172839,0,0)" xlink:href="#aT"/><use transform="matrix(0.06172839506172839,0,0,0.06172839506172839,13.580246913580245,0)" xlink:href="#aH"/><use transform="matrix(0.06172839506172839,0,0,0.06172839506172839,25.925925925925924,0)" xlink:href="#aI"/><use transform="matrix(0.06172839506172839,0,0,0.06172839506172839,33.2716049382716,0)" xlink:href="#aU"/><use transform="matrix(0.06172839506172839,0,0,0.06172839506172839,44.38271604938271,0)" xlink:href="#aU"/><use transform="matrix(0.06172839506172839,0,0,0.06172839506172839,55.49382716049382,0)" xlink:href="#aL"/></g><g id="q"><use transform="matrix(0.06172839506172839,0,0,0.06172839506172839,0,0)" xlink:href="#aL"/><use transform="matrix(0.06172839506172839,0,0,0.06172839506172839,12.345679012345679,0)" xlink:href="#aI"/></g><path fill="#1d262b" d="M197 0v-115H63V0H30v-248h33v105h134v-105h34V0h-34" id="aV"/><path fill="#1d262b" d="M24-231v-30h32v30H24zM24 0v-190h32V0H24" id="aW"/><path fill="#1d262b" d="M101-234c-31-9-42 10-38 44h38v23H63V0H32v-167H5v-23h27c-7-52 17-82 69-68v24" id="aX"/><path fill="#1d262b" d="M135-143c-3-34-86-38-87 0 15 53 115 12 119 90S17 21 10-45l28-5c4 36 97 45 98 0-10-56-113-15-118-90-4-57 82-63 122-42 12 7 21 19 24 35" id="aY"/><path fill="#1d262b" d="M210-169c-67 3-38 105-44 169h-31v-121c0-29-5-50-35-48C34-165 62-65 56 0H25l-1-190h30c1 10-1 24 2 32 10-44 99-50 107 0 11-21 27-35 58-36 85-2 47 119 55 194h-31v-121c0-29-5-49-35-48" id="aZ"/><g id="r"><use transform="matrix(0.06172839506172839,0,0,0.06172839506172839,0,0)" xlink:href="#aV"/><use transform="matrix(0.06172839506172839,0,0,0.06172839506172839,15.987654320987653,0)" xlink:href="#aW"/><use transform="matrix(0.06172839506172839,0,0,0.06172839506172839,20.864197530864196,0)" xlink:href="#aX"/><use transform="matrix(0.06172839506172839,0,0,0.06172839506172839,27.037037037037035,0)" xlink:href="#aW"/><use transform="matrix(0.06172839506172839,0,0,0.06172839506172839,31.91358024691358,0)" xlink:href="#aA"/><use transform="matrix(0.06172839506172839,0,0,0.06172839506172839,44.25925925925925,0)" xlink:href="#aY"/><use transform="matrix(0.06172839506172839,0,0,0.06172839506172839,55.37037037037037,0)" xlink:href="#aZ"/></g><path fill="#1d262b" d="M114-157C55-157 80-60 75 0H25v-261h50l-1 109c12-26 28-41 61-42 86-1 58 113 63 194h-50c-7-57 23-157-34-157" id="ba"/><path fill="#1d262b" d="M88-194c31-1 46 15 58 34l-1-101h50l1 261h-48c-2-10 0-23-3-31C134-8 116 4 84 4 32 4 16-41 15-95c0-56 19-97 73-99zm17 164c33 0 40-30 41-66 1-37-9-64-41-64s-38 30-39 65c0 43 13 65 39 65" id="bb"/><g id="s"><use transform="matrix(0.06172839506172839,0,0,0.06172839506172839,0,0)" xlink:href="#ab"/><use transform="matrix(0.06172839506172839,0,0,0.06172839506172839,14.814814814814813,0)" xlink:href="#ba"/><use transform="matrix(0.06172839506172839,0,0,0.06172839506172839,28.33333333333333,0)" xlink:href="#ac"/><use transform="matrix(0.06172839506172839,0,0,0.06172839506172839,40.679012345679006,0)" xlink:href="#aR"/><use transform="matrix(0.06172839506172839,0,0,0.06172839506172839,53.02469135802468,0)" xlink:href="#aE"/><use transform="matrix(0.06172839506172839,0,0,0.06172839506172839,65.37037037037037,0)" xlink:href="#bb"/></g><g id="t"><use transform="matrix(0.06172839506172839,0,0,0.06172839506172839,0,0)" xlink:href="#aQ"/><use transform="matrix(0.06172839506172839,0,0,0.06172839506172839,15.987654320987653,0)" xlink:href="#aR"/><use transform="matrix(0.06172839506172839,0,0,0.06172839506172839,28.333333333333332,0)" xlink:href="#aR"/><use transform="matrix(0.06172839506172839,0,0,0.06172839506172839,40.67901234567901,0)" xlink:href="#aE"/><use transform="matrix(0.06172839506172839,0,0,0.06172839506172839,53.02469135802469,0)" xlink:href="#aw"/><use transform="matrix(0.06172839506172839,0,0,0.06172839506172839,72.77777777777777,0)" xlink:href="#aS"/><use transform="matrix(0.06172839506172839,0,0,0.06172839506172839,86.29629629629629,0)" xlink:href="#an"/><use transform="matrix(0.06172839506172839,0,0,0.06172839506172839,92.46913580246913,0)" xlink:href="#af"/><use transform="matrix(0.06172839506172839,0,0,0.06172839506172839,98.64197530864196,0)" xlink:href="#aE"/><use transform="matrix(0.06172839506172839,0,0,0.06172839506172839,110.98765432098764,0)" xlink:href="#aR"/></g><path fill="#1d262b" d="M121-226c-27-7-43 5-38 36h38v33H83V0H34v-157H6v-33h28c-9-59 32-81 87-68v32" id="bc"/><g id="u"><use transform="matrix(0.06172839506172839,0,0,0.06172839506172839,0,0)" xlink:href="#ar"/><use transform="matrix(0.06172839506172839,0,0,0.06172839506172839,13.518518518518517,0)" xlink:href="#bc"/><use transform="matrix(0.06172839506172839,0,0,0.06172839506172839,20.864197530864196,0)" xlink:href="#ac"/><use transform="matrix(0.06172839506172839,0,0,0.06172839506172839,33.20987654320987,0)" xlink:href="#aR"/><use transform="matrix(0.06172839506172839,0,0,0.06172839506172839,45.55555555555555,0)" xlink:href="#ao"/><use transform="matrix(0.06172839506172839,0,0,0.06172839506172839,52.90123456790123,0)" xlink:href="#ac"/><use transform="matrix(0.06172839506172839,0,0,0.06172839506172839,65.24691358024691,0)" xlink:href="#ao"/><use transform="matrix(0.06172839506172839,0,0,0.06172839506172839,72.5925925925926,0)" xlink:href="#aR"/></g><path fill="#1d262b" d="M146-102V0H94v-102L6-248h54l60 105 60-105h54" id="bd"/><path fill="#1d262b" d="M195 0l-88-114-31 24V0H24v-248h52v113l112-113h60L142-143 257 0h-62" id="be"/><path fill="#1d262b" d="M4 7l51-268h42L46 7H4" id="bf"/><path fill="#1d262b" d="M230 0l2-204L168 0h-37L68-204 70 0H24v-248h70l56 185 57-185h69V0h-46" id="bg"/><path fill="#1d262b" d="M84 4C32 4 15-41 15-95c0-55 18-99 73-99 29 0 47 12 58 34l2-30h48l-1 265h-49V-32C136-9 114 4 84 4zm21-34c32 0 41-29 41-66 0-36-9-64-40-64-33 0-39 30-40 65 0 43 13 65 39 65" id="bh"/><path fill="#1d262b" d="M123 10C108 53 80 86 19 72V37c35 8 53-11 59-39L3-190h52l48 148c12-52 28-100 44-148h51" id="bi"/><g id="v"><use transform="matrix(0.06172839506172839,0,0,0.06172839506172839,0,0)" xlink:href="#bd"/><use transform="matrix(0.06172839506172839,0,0,0.06172839506172839,12.777777777777777,0)" xlink:href="#aQ"/><use transform="matrix(0.06172839506172839,0,0,0.06172839506172839,28.76543209876543,0)" xlink:href="#be"/><use transform="matrix(0.06172839506172839,0,0,0.06172839506172839,44.75308641975308,0)" xlink:href="#bf"/><use transform="matrix(0.06172839506172839,0,0,0.06172839506172839,50.925925925925924,0)" xlink:href="#bg"/><use transform="matrix(0.06172839506172839,0,0,0.06172839506172839,69.38271604938271,0)" xlink:href="#aE"/><use transform="matrix(0.06172839506172839,0,0,0.06172839506172839,81.72839506172839,0)" xlink:href="#ap"/><use transform="matrix(0.06172839506172839,0,0,0.06172839506172839,90.37037037037037,0)" xlink:href="#bh"/><use transform="matrix(0.06172839506172839,0,0,0.06172839506172839,103.88888888888889,0)" xlink:href="#av"/><use transform="matrix(0.06172839506172839,0,0,0.06172839506172839,117.4074074074074,0)" xlink:href="#ap"/><use transform="matrix(0.06172839506172839,0,0,0.06172839506172839,126.04938271604938,0)" xlink:href="#bi"/></g><g id="w"><use transform="matrix(0.06172839506172839,0,0,0.06172839506172839,0,0)" xlink:href="#ac"/><use transform="matrix(0.06172839506172839,0,0,0.06172839506172839,12.345679012345679,0)" xlink:href="#aR"/><use transform="matrix(0.06172839506172839,0,0,0.06172839506172839,24.691358024691358,0)" xlink:href="#aw"/><use transform="matrix(0.06172839506172839,0,0,0.06172839506172839,44.44444444444444,0)" xlink:href="#ar"/><use transform="matrix(0.06172839506172839,0,0,0.06172839506172839,57.96296296296296,0)" xlink:href="#aE"/><use transform="matrix(0.06172839506172839,0,0,0.06172839506172839,70.30864197530865,0)" xlink:href="#aq"/><use transform="matrix(0.06172839506172839,0,0,0.06172839506172839,83.82716049382717,0)" xlink:href="#aE"/></g><g id="x"><use transform="matrix(0.06172839506172839,0,0,0.06172839506172839,0,0)" xlink:href="#ah"/><use transform="matrix(0.06172839506172839,0,0,0.06172839506172839,15.987654320987653,0)" xlink:href="#af"/><use transform="matrix(0.06172839506172839,0,0,0.06172839506172839,22.160493827160494,0)" xlink:href="#ai"/><use transform="matrix(0.06172839506172839,0,0,0.06172839506172839,35.67901234567901,0)" xlink:href="#af"/></g><g id="y"><use transform="matrix(0.049382716049382706,0,0,0.049382716049382706,0,0)" xlink:href="#aF"/><use transform="matrix(0.049382716049382706,0,0,0.049382716049382706,5.876543209876542,0)" xlink:href="#aN"/><use transform="matrix(0.049382716049382706,0,0,0.049382716049382706,17.728395061728392,0)" xlink:href="#aB"/><use transform="matrix(0.049382716049382706,0,0,0.049382716049382706,27.604938271604933,0)" xlink:href="#aA"/><use transform="matrix(0.049382716049382706,0,0,0.049382716049382706,37.481481481481474,0)" xlink:href="#aC"/><use transform="matrix(0.049382716049382706,0,0,0.049382716049382706,47.35802469135801,0)" xlink:href="#az"/><use transform="matrix(0.049382716049382706,0,0,0.049382716049382706,52.29629629629628,0)" xlink:href="#aH"/><use transform="matrix(0.049382716049382706,0,0,0.049382716049382706,62.172839506172814,0)" xlink:href="#aI"/></g><path fill="#1d262b" d="M127-220V0H93v-220H8v-28h204v28h-85" id="bj"/><g id="z"><use transform="matrix(0.049382716049382706,0,0,0.049382716049382706,0,0)" xlink:href="#bj"/><use transform="matrix(0.049382716049382706,0,0,0.049382716049382706,10.172839506172838,0)" xlink:href="#aI"/><use transform="matrix(0.049382716049382706,0,0,0.049382716049382706,16.04938271604938,0)" xlink:href="#aW"/><use transform="matrix(0.049382716049382706,0,0,0.049382716049382706,19.950617283950614,0)" xlink:href="#aZ"/><use transform="matrix(0.049382716049382706,0,0,0.049382716049382706,34.716049382716044,0)" xlink:href="#aZ"/><use transform="matrix(0.049382716049382706,0,0,0.049382716049382706,49.481481481481474,0)" xlink:href="#aH"/><use transform="matrix(0.049382716049382706,0,0,0.049382716049382706,59.35802469135801,0)" xlink:href="#aB"/><use transform="matrix(0.049382716049382706,0,0,0.049382716049382706,69.23456790123456,0)" xlink:href="#aP"/></g><g id="A"><use transform="matrix(0.06172839506172839,0,0,0.06172839506172839,0,0)" xlink:href="#aD"/><use transform="matrix(0.06172839506172839,0,0,0.06172839506172839,12.345679012345679,0)" xlink:href="#aw"/><use transform="matrix(0.06172839506172839,0,0,0.06172839506172839,32.098765432098766,0)" xlink:href="#aE"/><use transform="matrix(0.06172839506172839,0,0,0.06172839506172839,44.44444444444444,0)" xlink:href="#ap"/></g><path fill="#1d262b" d="M24-248c120-7 223 5 221 122C244-46 201 0 124 0H24v-248zM76-40c74 7 117-18 117-86 0-67-45-88-117-82v168" id="bk"/><g id="B"><use transform="matrix(0.06172839506172839,0,0,0.06172839506172839,0,0)" xlink:href="#bk"/><use transform="matrix(0.06172839506172839,0,0,0.06172839506172839,15.987654320987653,0)" xlink:href="#ae"/></g><g id="C"><use transform="matrix(0.06172839506172839,0,0,0.06172839506172839,0,0)" xlink:href="#at"/><use transform="matrix(0.06172839506172839,0,0,0.06172839506172839,15.987654320987653,0)" xlink:href="#ag"/><use transform="matrix(0.06172839506172839,0,0,0.06172839506172839,29.50617283950617,0)" xlink:href="#aq"/><use transform="matrix(0.06172839506172839,0,0,0.06172839506172839,43.02469135802469,0)" xlink:href="#ao"/><use transform="matrix(0.06172839506172839,0,0,0.06172839506172839,50.37037037037037,0)" xlink:href="#af"/><use transform="matrix(0.06172839506172839,0,0,0.06172839506172839,56.54320987654321,0)" xlink:href="#ar"/><use transform="matrix(0.06172839506172839,0,0,0.06172839506172839,70.06172839506172,0)" xlink:href="#av"/><use transform="matrix(0.06172839506172839,0,0,0.06172839506172839,83.58024691358024,0)" xlink:href="#af"/><use transform="matrix(0.06172839506172839,0,0,0.06172839506172839,89.75308641975307,0)" xlink:href="#ao"/><use transform="matrix(0.06172839506172839,0,0,0.06172839506172839,97.09876543209876,0)" xlink:href="#bi"/></g><g id="D"><use transform="matrix(0.06172839506172839,0,0,0.06172839506172839,0,0)" xlink:href="#bg"/><use transform="matrix(0.06172839506172839,0,0,0.06172839506172839,18.456790123456788,0)" xlink:href="#aE"/><use transform="matrix(0.06172839506172839,0,0,0.06172839506172839,30.80246913580247,0)" xlink:href="#ao"/><use transform="matrix(0.06172839506172839,0,0,0.06172839506172839,38.148148148148145,0)" xlink:href="#ap"/><use transform="matrix(0.06172839506172839,0,0,0.06172839506172839,46.79012345679012,0)" xlink:href="#af"/><use transform="matrix(0.06172839506172839,0,0,0.06172839506172839,52.96296296296296,0)" xlink:href="#ad"/><use transform="matrix(0.06172839506172839,0,0,0.06172839506172839,65.30864197530865,0)" xlink:href="#aR"/></g><g id="E"><use transform="matrix(0.06172839506172839,0,0,0.06172839506172839,0,0)" xlink:href="#at"/><use transform="matrix(0.06172839506172839,0,0,0.06172839506172839,15.987654320987653,0)" xlink:href="#ag"/><use transform="matrix(0.06172839506172839,0,0,0.06172839506172839,29.50617283950617,0)" xlink:href="#ap"/><use transform="matrix(0.06172839506172839,0,0,0.06172839506172839,38.148148148148145,0)" xlink:href="#ap"/><use transform="matrix(0.06172839506172839,0,0,0.06172839506172839,46.79012345679012,0)" xlink:href="#aE"/><use transform="matrix(0.06172839506172839,0,0,0.06172839506172839,59.1358024691358,0)" xlink:href="#ad"/><use transform="matrix(0.06172839506172839,0,0,0.06172839506172839,71.48148148148148,0)" xlink:href="#ao"/><use transform="matrix(0.06172839506172839,0,0,0.06172839506172839,78.82716049382717,0)" xlink:href="#aq"/><use transform="matrix(0.06172839506172839,0,0,0.06172839506172839,92.34567901234568,0)" xlink:href="#aE"/><use transform="matrix(0.06172839506172839,0,0,0.06172839506172839,104.69135802469137,0)" xlink:href="#aR"/><use transform="matrix(0.06172839506172839,0,0,0.06172839506172839,117.03703703703705,0)" xlink:href="#aR"/></g><g id="F"><use transform="matrix(0.06172839506172839,0,0,0.06172839506172839,0,0)" xlink:href="#bg"/><use transform="matrix(0.06172839506172839,0,0,0.06172839506172839,18.456790123456788,0)" xlink:href="#aE"/><use transform="matrix(0.06172839506172839,0,0,0.06172839506172839,30.80246913580247,0)" xlink:href="#ao"/><use transform="matrix(0.06172839506172839,0,0,0.06172839506172839,38.148148148148145,0)" xlink:href="#ap"/><use transform="matrix(0.06172839506172839,0,0,0.06172839506172839,46.79012345679012,0)" xlink:href="#af"/><use transform="matrix(0.06172839506172839,0,0,0.06172839506172839,52.96296296296296,0)" xlink:href="#ad"/><use transform="matrix(0.06172839506172839,0,0,0.06172839506172839,65.30864197530865,0)" xlink:href="#aR"/></g><path fill="#1d262b" d="M135-194c53 0 70 44 70 98 0 56-19 98-73 100-31 1-45-17-59-34 3 33 2 69 2 105H25l-1-265h48c2 10 0 23 3 31 11-24 29-35 60-35zM114-30c33 0 39-31 40-66 0-38-9-64-40-64-56 0-55 130 0 130" id="bl"/><g id="G"><use transform="matrix(0.06172839506172839,0,0,0.06172839506172839,0,0)" xlink:href="#at"/><use transform="matrix(0.06172839506172839,0,0,0.06172839506172839,15.987654320987653,0)" xlink:href="#ag"/><use transform="matrix(0.06172839506172839,0,0,0.06172839506172839,29.50617283950617,0)" xlink:href="#aw"/><use transform="matrix(0.06172839506172839,0,0,0.06172839506172839,49.25925925925925,0)" xlink:href="#bl"/><use transform="matrix(0.06172839506172839,0,0,0.06172839506172839,62.77777777777777,0)" xlink:href="#an"/><use transform="matrix(0.06172839506172839,0,0,0.06172839506172839,68.9506172839506,0)" xlink:href="#aE"/><use transform="matrix(0.06172839506172839,0,0,0.06172839506172839,81.29629629629629,0)" xlink:href="#ao"/><use transform="matrix(0.06172839506172839,0,0,0.06172839506172839,88.64197530864197,0)" xlink:href="#aE"/><use transform="matrix(0.06172839506172839,0,0,0.06172839506172839,100.98765432098766,0)" xlink:href="#aq"/><use transform="matrix(0.06172839506172839,0,0,0.06172839506172839,114.50617283950618,0)" xlink:href="#aE"/><use transform="matrix(0.06172839506172839,0,0,0.06172839506172839,126.85185185185188,0)" xlink:href="#aR"/><use transform="matrix(0.06172839506172839,0,0,0.06172839506172839,139.19753086419755,0)" xlink:href="#aR"/></g><path fill="#008573" d="M24-248c120-7 223 5 221 122C244-46 201 0 124 0H24v-248zM76-40c74 7 117-18 117-86 0-67-45-88-117-82v168" id="bm"/><path fill="#008573" d="M199 0l-22-63H83L61 0H9l90-248h61L250 0h-51zm-33-102l-36-108c-10 38-24 72-36 108h72" id="bn"/><path fill="#008573" d="M146-102V0H94v-102L6-248h54l60 105 60-105h54" id="bo"/><g id="H"><use transform="matrix(0.1055555555555555,0,0,0.1055555555555555,0,0)" xlink:href="#bm"/><use transform="matrix(0.1055555555555555,0,0,0.1055555555555555,27.338888888888874,0)" xlink:href="#bn"/><use transform="matrix(0.1055555555555555,0,0,0.1055555555555555,51.194444444444414,0)" xlink:href="#bo"/></g><path fill="#008573" d="M23 0v-37h61v-169l-59 37v-38l62-41h46v211h57V0H23" id="bp"/><use transform="matrix(0.1055555555555555,0,0,0.1055555555555555,0,0)" xlink:href="#bp" id="I"/><path fill="#008573" d="M238-95c0 69-44 99-111 99C63 4 22-25 22-93v-155h51v151c-1 38 19 59 55 60 90 1 49-130 58-211h52v153" id="bq"/><path fill="#008573" d="M135-194c87-1 58 113 63 194h-50c-7-57 23-157-34-157-59 0-34 97-39 157H25l-1-190h47c2 12-1 28 3 38 12-26 28-41 61-42" id="br"/><path fill="#008573" d="M88-194c31-1 46 15 58 34l-1-101h50l1 261h-48c-2-10 0-23-3-31C134-8 116 4 84 4 32 4 16-41 15-95c0-56 19-97 73-99zm17 164c33 0 40-30 41-66 1-37-9-64-41-64s-38 30-39 65c0 43 13 65 39 65" id="bs"/><path fill="#008573" d="M185-48c-13 30-37 53-82 52C43 2 14-33 14-96s30-98 90-98c62 0 83 45 84 108H66c0 31 8 55 39 56 18 0 30-7 34-22zm-45-69c5-46-57-63-70-21-2 6-4 13-4 21h74" id="bt"/><path fill="#008573" d="M135-150c-39-12-60 13-60 57V0H25l-1-190h47c2 13-1 29 3 40 6-28 27-53 61-41v41" id="bu"/><path fill="#008573" d="M137-138c1-29-70-34-71-4 15 46 118 7 119 86 1 83-164 76-172 9l43-7c4 19 20 25 44 25 33 8 57-30 24-41C81-84 22-81 20-136c-2-80 154-74 161-7" id="bv"/><path fill="#008573" d="M115-3C79 11 28 4 28-45v-112H4v-33h27l15-45h31v45h36v33H77v99c-1 23 16 31 38 25v30" id="bw"/><path fill="#008573" d="M133-34C117-15 103 5 69 4 32 3 11-16 11-54c-1-60 55-63 116-61 1-26-3-47-28-47-18 1-26 9-28 27l-52-2c7-38 36-58 82-57s74 22 75 68l1 82c-1 14 12 18 25 15v27c-30 8-71 5-69-32zm-48 3c29 0 43-24 42-57-32 0-66-3-65 30 0 17 8 27 23 27" id="bx"/><path fill="#008573" d="M4 7l51-268h42L46 7H4" id="by"/><path fill="#008573" d="M24-248c93 1 206-16 204 79-1 75-69 88-152 82V0H24v-248zm52 121c47 0 100 7 100-41 0-47-54-39-100-39v80" id="bz"/><path fill="#008573" d="M135-194c53 0 70 44 70 98 0 56-19 98-73 100-31 1-45-17-59-34 3 33 2 69 2 105H25l-1-265h48c2 10 0 23 3 31 11-24 29-35 60-35zM114-30c33 0 39-31 40-66 0-38-9-64-40-64-56 0-55 130 0 130" id="bA"/><g id="J"><use transform="matrix(0.08703703703703697,0,0,0.08703703703703697,0,0)" xlink:href="#bq"/><use transform="matrix(0.08703703703703697,0,0,0.08703703703703697,22.542592592592573,0)" xlink:href="#br"/><use transform="matrix(0.08703703703703697,0,0,0.08703703703703697,41.60370370370367,0)" xlink:href="#bs"/><use transform="matrix(0.08703703703703697,0,0,0.08703703703703697,60.66481481481477,0)" xlink:href="#bt"/><use transform="matrix(0.08703703703703697,0,0,0.08703703703703697,78.07222222222217,0)" xlink:href="#bu"/><use transform="matrix(0.08703703703703697,0,0,0.08703703703703697,90.25740740740734,0)" xlink:href="#bv"/><use transform="matrix(0.08703703703703697,0,0,0.08703703703703697,107.66481481481473,0)" xlink:href="#bw"/><use transform="matrix(0.08703703703703697,0,0,0.08703703703703697,118.02222222222213,0)" xlink:href="#bx"/><use transform="matrix(0.08703703703703697,0,0,0.08703703703703697,135.42962962962952,0)" xlink:href="#br"/><use transform="matrix(0.08703703703703697,0,0,0.08703703703703697,154.49074074074062,0)" xlink:href="#bs"/><use transform="matrix(0.08703703703703697,0,0,0.08703703703703697,173.55185185185172,0)" xlink:href="#by"/><use transform="matrix(0.08703703703703697,0,0,0.08703703703703697,182.25555555555542,0)" xlink:href="#bz"/><use transform="matrix(0.08703703703703697,0,0,0.08703703703703697,203.14444444444428,0)" xlink:href="#bu"/><use transform="matrix(0.08703703703703697,0,0,0.08703703703703697,215.3296296296294,0)" xlink:href="#bt"/><use transform="matrix(0.08703703703703697,0,0,0.08703703703703697,232.73703703703683,0)" xlink:href="#bA"/></g><path fill="#008573" d="M24 0v-248h52V0H24" id="bB"/><path fill="#008573" d="M85 4C-2 5 27-109 22-190h50c7 57-23 150 33 157 60-5 35-97 40-157h50l1 190h-47c-2-12 1-28-3-38-12 25-28 42-61 42" id="bC"/><g id="K"><use transform="matrix(0.08703703703703697,0,0,0.08703703703703697,0,0)" xlink:href="#bB"/><use transform="matrix(0.08703703703703697,0,0,0.08703703703703697,8.703703703703697,0)" xlink:href="#br"/><use transform="matrix(0.08703703703703697,0,0,0.08703703703703697,27.764814814814795,0)" xlink:href="#bA"/><use transform="matrix(0.08703703703703697,0,0,0.08703703703703697,46.82592592592589,0)" xlink:href="#bC"/><use transform="matrix(0.08703703703703697,0,0,0.08703703703703697,65.88703703703698,0)" xlink:href="#bw"/></g><g id="L"><use transform="matrix(0.08703703703703697,0,0,0.08703703703703697,0,0)" xlink:href="#bm"/><use transform="matrix(0.08703703703703697,0,0,0.08703703703703697,22.542592592592573,0)" xlink:href="#bx"/><use transform="matrix(0.08703703703703697,0,0,0.08703703703703697,39.94999999999997,0)" xlink:href="#bw"/><use transform="matrix(0.08703703703703697,0,0,0.08703703703703697,50.30740740740737,0)" xlink:href="#bx"/></g><path fill="#fc9432" d="M24-248c120-7 223 5 221 122C244-46 201 0 124 0H24v-248zM76-40c74 7 117-18 117-86 0-67-45-88-117-82v168" id="bD"/><path fill="#fc9432" d="M199 0l-22-63H83L61 0H9l90-248h61L250 0h-51zm-33-102l-36-108c-10 38-24 72-36 108h72" id="bE"/><path fill="#fc9432" d="M146-102V0H94v-102L6-248h54l60 105 60-105h54" id="bF"/><g id="N"><use transform="matrix(0.1055555555555555,0,0,0.1055555555555555,0,0)" xlink:href="#bD"/><use transform="matrix(0.1055555555555555,0,0,0.1055555555555555,27.338888888888874,0)" xlink:href="#bE"/><use transform="matrix(0.1055555555555555,0,0,0.1055555555555555,51.194444444444414,0)" xlink:href="#bF"/></g><path fill="#fc9432" d="M182-182c0 78-84 86-111 141h115V0H12c-6-101 99-100 120-180 1-22-12-31-33-32-23 0-32 14-35 34l-49-3c5-45 32-70 84-70 51 0 83 22 83 69" id="bG"/><use transform="matrix(0.1055555555555555,0,0,0.1055555555555555,0,0)" xlink:href="#bG" id="O"/><path fill="#fc9432" d="M240-174c0 40-23 61-54 70L253 0h-59l-57-94H76V0H24v-248c93 4 217-23 216 74zM76-134c48-2 112 12 112-38 0-48-66-32-112-35v73" id="bH"/><path fill="#fc9432" d="M85 4C-2 5 27-109 22-190h50c7 57-23 150 33 157 60-5 35-97 40-157h50l1 190h-47c-2-12 1-28-3-38-12 25-28 42-61 42" id="bI"/><path fill="#fc9432" d="M135-194c87-1 58 113 63 194h-50c-7-57 23-157-34-157-59 0-34 97-39 157H25l-1-190h47c2 12-1 28 3 38 12-26 28-41 61-42" id="bJ"/><g id="P"><use transform="matrix(0.08703703703703697,0,0,0.08703703703703697,0,0)" xlink:href="#bH"/><use transform="matrix(0.08703703703703697,0,0,0.08703703703703697,22.542592592592573,0)" xlink:href="#bI"/><use transform="matrix(0.08703703703703697,0,0,0.08703703703703697,41.60370370370367,0)" xlink:href="#bJ"/></g><path fill="#fc9432" d="M136-208V0H84v-208H4v-40h212v40h-80" id="bK"/><path fill="#fc9432" d="M114-157C55-157 80-60 75 0H25v-261h50l-1 109c12-26 28-41 61-42 86-1 58 113 63 194h-50c-7-57 23-157-34-157" id="bL"/><path fill="#fc9432" d="M185-48c-13 30-37 53-82 52C43 2 14-33 14-96s30-98 90-98c62 0 83 45 84 108H66c0 31 8 55 39 56 18 0 30-7 34-22zm-45-69c5-46-57-63-70-21-2 6-4 13-4 21h74" id="bM"/><g id="Q"><use transform="matrix(0.08703703703703697,0,0,0.08703703703703697,0,0)" xlink:href="#bK"/><use transform="matrix(0.08703703703703697,0,0,0.08703703703703697,19.061111111111096,0)" xlink:href="#bL"/><use transform="matrix(0.08703703703703697,0,0,0.08703703703703697,38.12222222222219,0)" xlink:href="#bM"/></g><path fill="#fc9432" d="M137-138c1-29-70-34-71-4 15 46 118 7 119 86 1 83-164 76-172 9l43-7c4 19 20 25 44 25 33 8 57-30 24-41C81-84 22-81 20-136c-2-80 154-74 161-7" id="bN"/><path fill="#fc9432" d="M220-157c-53 9-28 100-34 157h-49v-107c1-27-5-49-29-50C55-147 81-57 75 0H25l-1-190h47c2 12-1 28 3 38 10-53 101-56 108 0 13-22 24-43 59-42 82 1 51 116 57 194h-49v-107c-1-25-5-48-29-50" id="bO"/><path fill="#fc9432" d="M135-194c52 0 70 43 70 98 0 56-19 99-73 100-30 1-46-15-58-35L72 0H24l1-261h50v104c11-23 29-37 60-37zM114-30c31 0 40-27 40-66 0-37-7-63-39-63s-41 28-41 65c0 36 8 64 40 64" id="bP"/><path fill="#fc9432" d="M25 0v-261h50V0H25" id="bQ"/><path fill="#fc9432" d="M135-150c-39-12-60 13-60 57V0H25l-1-190h47c2 13-1 29 3 40 6-28 27-53 61-41v41" id="bR"/><g id="R"><use transform="matrix(0.08703703703703697,0,0,0.08703703703703697,0,0)" xlink:href="#bE"/><use transform="matrix(0.08703703703703697,0,0,0.08703703703703697,22.542592592592573,0)" xlink:href="#bN"/><use transform="matrix(0.08703703703703697,0,0,0.08703703703703697,39.94999999999997,0)" xlink:href="#bN"/><use transform="matrix(0.08703703703703697,0,0,0.08703703703703697,57.357407407407365,0)" xlink:href="#bM"/><use transform="matrix(0.08703703703703697,0,0,0.08703703703703697,74.76481481481476,0)" xlink:href="#bO"/><use transform="matrix(0.08703703703703697,0,0,0.08703703703703697,102.61666666666659,0)" xlink:href="#bP"/><use transform="matrix(0.08703703703703697,0,0,0.08703703703703697,121.6777777777777,0)" xlink:href="#bQ"/><use transform="matrix(0.08703703703703697,0,0,0.08703703703703697,130.3814814814814,0)" xlink:href="#bM"/><use transform="matrix(0.08703703703703697,0,0,0.08703703703703697,147.78888888888878,0)" xlink:href="#bR"/><use transform="matrix(0.08703703703703697,0,0,0.08703703703703697,159.97407407407394,0)" xlink:href="#bN"/></g><path fill="#1071e5" d="M24-248c120-7 223 5 221 122C244-46 201 0 124 0H24v-248zM76-40c74 7 117-18 117-86 0-67-45-88-117-82v168" id="bS"/><path fill="#1071e5" d="M199 0l-22-63H83L61 0H9l90-248h61L250 0h-51zm-33-102l-36-108c-10 38-24 72-36 108h72" id="bT"/><path fill="#1071e5" d="M146-102V0H94v-102L6-248h54l60 105 60-105h54" id="bU"/><g id="T"><use transform="matrix(0.1055555555555555,0,0,0.1055555555555555,0,0)" xlink:href="#bS"/><use transform="matrix(0.1055555555555555,0,0,0.1055555555555555,27.338888888888874,0)" xlink:href="#bT"/><use transform="matrix(0.1055555555555555,0,0,0.1055555555555555,51.194444444444414,0)" xlink:href="#bU"/></g><path fill="#1071e5" d="M128-127c34 4 56 21 59 58 7 91-148 94-172 28-4-9-6-17-7-26l51-5c1 24 16 35 40 36 23 0 39-12 38-36-1-31-31-36-65-34v-40c32 2 59-3 59-33 0-20-13-33-34-33s-33 13-35 32l-50-3c6-44 37-68 86-68 50 0 83 20 83 66 0 35-22 52-53 58" id="bV"/><use transform="matrix(0.1055555555555555,0,0,0.1055555555555555,0,0)" xlink:href="#bV" id="U"/><path fill="#1071e5" d="M140-251c80 0 125 45 125 126 0 70-33 111-92 124 6 28 34 38 68 31l-1 36C177 83 129 55 120 2 51-6 15-50 15-125c0-81 44-126 125-126zm-1 214c52 0 73-35 73-88 0-50-21-86-72-86-52 0-73 35-73 86s22 88 72 88" id="bW"/><path fill="#1071e5" d="M67-125c0 53 21 87 73 88 37 1 54-22 65-47l45 17C233-25 199 4 140 4 58 4 20-42 15-125 8-235 124-281 211-232c18 10 29 29 36 50l-46 12c-8-25-30-41-62-41-52 0-71 34-72 86" id="bX"/><g id="V"><use transform="matrix(0.08703703703703697,0,0,0.08703703703703697,0,0)" xlink:href="#bW"/><use transform="matrix(0.08703703703703697,0,0,0.08703703703703697,24.370370370370352,0)" xlink:href="#bX"/></g><path fill="#1071e5" d="M137-138c1-29-70-34-71-4 15 46 118 7 119 86 1 83-164 76-172 9l43-7c4 19 20 25 44 25 33 8 57-30 24-41C81-84 22-81 20-136c-2-80 154-74 161-7" id="bY"/><path fill="#1071e5" d="M185-48c-13 30-37 53-82 52C43 2 14-33 14-96s30-98 90-98c62 0 83 45 84 108H66c0 31 8 55 39 56 18 0 30-7 34-22zm-45-69c5-46-57-63-70-21-2 6-4 13-4 21h74" id="bZ"/><path fill="#1071e5" d="M220-157c-53 9-28 100-34 157h-49v-107c1-27-5-49-29-50C55-147 81-57 75 0H25l-1-190h47c2 12-1 28 3 38 10-53 101-56 108 0 13-22 24-43 59-42 82 1 51 116 57 194h-49v-107c-1-25-5-48-29-50" id="ca"/><path fill="#1071e5" d="M135-194c52 0 70 43 70 98 0 56-19 99-73 100-30 1-46-15-58-35L72 0H24l1-261h50v104c11-23 29-37 60-37zM114-30c31 0 40-27 40-66 0-37-7-63-39-63s-41 28-41 65c0 36 8 64 40 64" id="cb"/><path fill="#1071e5" d="M25 0v-261h50V0H25" id="cc"/><path fill="#1071e5" d="M25-224v-37h50v37H25zM25 0v-190h50V0H25" id="cd"/><g id="W"><use transform="matrix(0.08703703703703697,0,0,0.08703703703703697,0,0)" xlink:href="#bT"/><use transform="matrix(0.08703703703703697,0,0,0.08703703703703697,22.542592592592573,0)" xlink:href="#bY"/><use transform="matrix(0.08703703703703697,0,0,0.08703703703703697,39.94999999999997,0)" xlink:href="#bY"/><use transform="matrix(0.08703703703703697,0,0,0.08703703703703697,57.357407407407365,0)" xlink:href="#bZ"/><use transform="matrix(0.08703703703703697,0,0,0.08703703703703697,74.76481481481476,0)" xlink:href="#ca"/><use transform="matrix(0.08703703703703697,0,0,0.08703703703703697,102.61666666666659,0)" xlink:href="#cb"/><use transform="matrix(0.08703703703703697,0,0,0.08703703703703697,121.6777777777777,0)" xlink:href="#cc"/><use transform="matrix(0.08703703703703697,0,0,0.08703703703703697,130.3814814814814,0)" xlink:href="#cd"/><use transform="matrix(0.08703703703703697,0,0,0.08703703703703697,139.08518518518508,0)" xlink:href="#bZ"/><use transform="matrix(0.08703703703703697,0,0,0.08703703703703697,156.49259259259247,0)" xlink:href="#bY"/></g><path fill="#1d262b" d="M145-31C134-9 116 4 85 4 32 4 16-35 15-94c0-59 17-99 70-100 32-1 48 14 60 33 0-11-1-24 2-32h30l-1 268h-32zM93-21c41 0 51-33 51-76s-8-73-50-73c-40 0-46 35-46 75s5 74 45 74" id="ce"/><g id="Y"><use transform="matrix(0.06172839506172839,0,0,0.06172839506172839,0,0)" xlink:href="#aY"/><use transform="matrix(0.06172839506172839,0,0,0.06172839506172839,11.11111111111111,0)" xlink:href="#aH"/><use transform="matrix(0.06172839506172839,0,0,0.06172839506172839,23.45679012345679,0)" xlink:href="#ce"/><use transform="matrix(0.06172839506172839,0,0,0.06172839506172839,35.80246913580247,0)" xlink:href="#az"/><use transform="matrix(0.06172839506172839,0,0,0.06172839506172839,41.97530864197531,0)" xlink:href="#aU"/></g><g id="Z"><use transform="matrix(0.06172839506172839,0,0,0.06172839506172839,0,0)" xlink:href="#am"/><use transform="matrix(0.06172839506172839,0,0,0.06172839506172839,15.987654320987653,0)" xlink:href="#an"/><use transform="matrix(0.06172839506172839,0,0,0.06172839506172839,22.160493827160494,0)" xlink:href="#ao"/><use transform="matrix(0.06172839506172839,0,0,0.06172839506172839,29.50617283950617,0)" xlink:href="#ap"/><use transform="matrix(0.06172839506172839,0,0,0.06172839506172839,38.148148148148145,0)" xlink:href="#ac"/><use transform="matrix(0.06172839506172839,0,0,0.06172839506172839,50.49382716049382,0)" xlink:href="#an"/><use transform="matrix(0.06172839506172839,0,0,0.06172839506172839,56.666666666666664,0)" xlink:href="#ag"/><use transform="matrix(0.06172839506172839,0,0,0.06172839506172839,70.18518518518518,0)" xlink:href="#aq"/><use transform="matrix(0.06172839506172839,0,0,0.06172839506172839,83.7037037037037,0)" xlink:href="#ar"/></g><path fill="#1d262b" d="M18-27v-27l151-64-151-65v-27l175 74v36" id="cf"/><path fill="#1d262b" d="M54-142c48-35 137-8 131 61C196 18 31 33 14-55l32-4c7 23 22 37 52 37 35-1 51-22 54-58 4-55-73-65-99-34H22l8-134h141v27H59" id="cg"/><path fill="#1d262b" d="M101-251c68 0 85 55 85 127S166 4 100 4C33 4 14-52 14-124c0-73 17-127 87-127zm-1 229c47 0 54-49 54-102s-4-102-53-102c-51 0-55 48-55 102 0 53 5 102 54 102" id="ch"/><path fill="#1d262b" d="M115-194c53 0 69 39 70 98 0 66-23 100-70 100C84 3 66-7 56-30L54 0H23l1-261h32v101c10-23 28-34 59-34zm-8 174c40 0 45-34 45-75 0-40-5-75-45-74-42 0-51 32-51 76 0 43 10 73 51 73" id="ci"/><g id="aa"><use transform="matrix(0.049382716049382706,0,0,0.049382716049382706,0,0)" xlink:href="#aF"/><use transform="matrix(0.049382716049382706,0,0,0.049382716049382706,5.876543209876542,0)" xlink:href="#cf"/><use transform="matrix(0.049382716049382706,0,0,0.049382716049382706,16.24691358024691,0)" xlink:href="#cg"/><use transform="matrix(0.049382716049382706,0,0,0.049382716049382706,26.123456790123452,0)" xlink:href="#ch"/><use transform="matrix(0.049382716049382706,0,0,0.049382716049382706,35.99999999999999,0)" xlink:href="#aU"/><use transform="matrix(0.049382716049382706,0,0,0.049382716049382706,44.88888888888888,0)" xlink:href="#ci"/><use transform="matrix(0.049382716049382706,0,0,0.049382716049382706,54.76543209876542,0)" xlink:href="#aP"/></g></defs></g></svg>